# xmcd
#
# Track frame offsets:
#	150
#	11460
#	22485
#	39036
#	56461
#	69155
#	87644
#	105071
#	119929
#	130591
#	154891
#	166019
#	179646
#	197988
#
# Disc length: 2849 seconds
#
# Revision: 0
# Processed by: cddbd v1.5.2PL0 Copyright (c) Steve Scherf et al.
# Submitted via: dBpowerAMP V4.0
#
DISCID=b60b1f0e
DTITLE=Grimshaw - 13th Junction
DYEAR=2017
DGENRE=Blues
TTITLE0=Sinking Srone
TTITLE1=Fire Burning Bright
TTITLE2=Hot Dog Man
TTITLE3=Hanging Around
TTITLE4=Flick of a Dime
TTITLE5=Honey Man
TTITLE6=Wishing Well Water
TTITLE7=Train a Coming
TTITLE8=Genie in the Jar
TTITLE9=13th Junction
TTITLE10=Mointain Rumble
TTITLE11=No ist Not a Reason
TTITLE12=Scarecrow Blues
TTITLE13=Take my Dreams Down Home
EXTD=
EXTT0=
EXTT1=
EXTT2=
EXTT3=
EXTT4=
EXTT5=
EXTT6=
EXTT7=
EXTT8=
EXTT9=
EXTT10=
EXTT11=
EXTT12=
EXTT13=
PLAYORDER=
